<svg class="undefined" xmlns="http://www.w3.org/2000/svg" version="1.1" width="40" height="40" viewBox="0 0 812 799"><g><path fill="#fefefe" d="M -0.5,-0.5 C 199.5,-0.5 399.5,-0.5 599.5,-0.5C 593.397,1.26898 587.731,4.10231 582.5,8C 534.5,56 486.5,104 438.5,152C 450.461,153.308 462.461,153.808 474.5,153.5C 484.494,154.167 494.661,154.5 505,154.5C 520.694,154.66 536.194,153.993 551.5,152.5C 556.562,152.726 561.562,152.392 566.5,151.5C 580.72,151.507 594.72,150.507 608.5,148.5C 631.94,146.675 655.274,144.008 678.5,140.5C 682.764,140.656 686.764,139.989 690.5,138.5C 714.982,135.566 739.315,131.899 763.5,127.5C 767.93,126.401 772.264,125.401 776.5,124.5C 781.821,123.671 787.154,122.838 792.5,122C 795.281,121.478 797.615,120.311 799.5,118.5C 805.232,111.47 807.898,103.303 807.5,94C 808.051,85.4912 805.717,77.9912 800.5,71.5C 796.102,65.2833 790.435,60.45 783.5,57C 727.297,38.047 671.297,18.8803 615.5,-0.5C 680.833,-0.5 746.167,-0.5 811.5,-0.5C 811.5,265.833 811.5,532.167 811.5,798.5C 540.833,798.5 270.167,798.5 -0.5,798.5C -0.5,532.167 -0.5,265.833 -0.5,-0.5 Z" style="opacity: 1;"></path></g><g><path fill="#3b8afe" d="M 599.5,-0.5 C 604.833,-0.5 610.167,-0.5 615.5,-0.5C 671.297,18.8803 727.297,38.047 783.5,57C 790.435,60.45 796.102,65.2833 800.5,71.5C 801.389,75.1213 802.722,78.6213 804.5,82C 804.355,83.2259 804.022,84.3926 803.5,85.5C 804.227,89.9611 805.227,94.2945 806.5,98.5C 805.935,103.73 805.102,103.73 804,98.5C 803.059,104.617 800.892,110.284 797.5,115.5C 798.612,116.265 799.279,117.265 799.5,118.5C 797.615,120.311 795.281,121.478 792.5,122C 787.154,122.838 781.821,123.671 776.5,124.5C 772.486,124.334 768.486,124.501 764.5,125C 763.748,125.671 763.414,126.504 763.5,127.5C 739.315,131.899 714.982,135.566 690.5,138.5C 687.15,138.335 683.817,138.502 680.5,139C 679.584,139.278 678.918,139.778 678.5,140.5C 655.274,144.008 631.94,146.675 608.5,148.5C 594.315,148.966 580.315,149.966 566.5,151.5C 561.562,152.392 556.562,152.726 551.5,152.5C 525.839,153.198 500.173,153.531 474.5,153.5C 462.461,153.808 450.461,153.308 438.5,152C 486.5,104 534.5,56 582.5,8C 587.731,4.10231 593.397,1.26898 599.5,-0.5 Z" style="opacity: 1;"></path></g><g><path fill="#488df4" d="M 800.5,71.5 C 805.717,77.9912 808.051,85.4912 807.5,94C 807.898,103.303 805.232,111.47 799.5,118.5C 799.279,117.265 798.612,116.265 797.5,115.5C 800.892,110.284 803.059,104.617 804,98.5C 805.102,103.73 805.935,103.73 806.5,98.5C 805.227,94.2945 804.227,89.9611 803.5,85.5C 804.022,84.3926 804.355,83.2259 804.5,82C 802.722,78.6213 801.389,75.1213 800.5,71.5 Z" style="opacity: 1;"></path></g><g><path fill="#5a95ea" d="M 776.5,124.5 C 772.264,125.401 767.93,126.401 763.5,127.5C 763.414,126.504 763.748,125.671 764.5,125C 768.486,124.501 772.486,124.334 776.5,124.5 Z" style="opacity: 1;"></path></g><g><path fill="#3c8afe" d="M 14.5,232.5 C 14.6224,225.804 14.7891,219.138 15,212.5C 14.3308,215.267 13.1641,215.767 11.5,214C 11.8333,213 12.1667,212 12.5,211C 11.4723,207.545 10.139,204.379 8.5,201.5C 5.78336,191.086 3.61669,180.419 2,169.5C -0.40587,148.809 7.7608,133.976 26.5,125C 30.017,123.266 33.6836,122.599 37.5,123C 117.206,209.299 187.039,302.799 247,403.5C 249.474,408.11 251.641,412.777 253.5,417.5C 189.363,401.107 125.363,384.274 61.5,367C 47.8371,362.003 39.0037,352.503 35,338.5C 27.8419,303.206 21.0086,267.873 14.5,232.5 Z" style="opacity: 1;"></path></g><g><path fill="#6094e8" d="M 690.5,138.5 C 686.764,139.989 682.764,140.656 678.5,140.5C 678.918,139.778 679.584,139.278 680.5,139C 683.817,138.502 687.15,138.335 690.5,138.5 Z" style="opacity: 1;"></path></g><g><path fill="#3b8afe" d="M 234.5,165.5 C 235.987,169.923 238.487,170.923 242,168.5C 250.092,169.779 258.259,170.612 266.5,171C 268.551,172.423 270.551,173.923 272.5,175.5C 273.478,175.023 274.311,174.357 275,173.5C 275.674,174.578 276.674,175.245 278,175.5C 283.129,174.631 288.296,174.298 293.5,174.5C 311.537,176.061 329.537,178.061 347.5,180.5C 348.609,181.29 349.942,181.79 351.5,182C 357.825,182.5 364.158,182.666 370.5,182.5C 383.15,183.411 395.816,184.078 408.5,184.5C 414.261,186.057 420.261,186.724 426.5,186.5C 471.166,189.157 515.833,189.157 560.5,186.5C 570.853,186.45 581.186,185.95 591.5,185C 593.058,184.79 594.391,184.29 595.5,183.5C 601.81,182.81 608.143,182.476 614.5,182.5C 630.899,181.495 647.232,179.828 663.5,177.5C 665.64,177.444 667.306,176.777 668.5,175.5C 679.496,174.167 690.496,172.834 701.5,171.5C 706.874,171.477 712.207,170.977 717.5,170C 718.416,169.722 719.082,169.222 719.5,168.5C 733.794,165.922 748.127,163.588 762.5,161.5C 765.082,161.025 767.082,161.692 768.5,163.5C 666.652,264.126 581.152,376.793 512,501.5C 483.463,557.718 457.629,615.051 434.5,673.5C 433.022,673.238 431.689,673.571 430.5,674.5C 429.894,676.709 429.227,678.876 428.5,681C 427.207,681.49 425.873,681.657 424.5,681.5C 425.092,687.958 424.092,688.624 421.5,683.5C 419.164,685.23 419.164,686.73 421.5,688C 419.771,689.789 419.104,691.956 419.5,694.5C 418.5,694.5 417.5,694.5 416.5,694.5C 417.167,692.167 417.833,689.833 418.5,687.5C 417.127,687.343 415.793,687.51 414.5,688C 414.603,693.944 414.936,699.944 415.5,706C 413.98,709.612 413.146,713.445 413,717.5C 411.984,716.366 411.317,716.699 411,718.5C 411.438,715.94 411.271,713.44 410.5,711C 409.212,710.761 408.212,711.261 407.5,712.5C 371.74,580.005 318.24,455.338 247,338.5C 199.73,265.507 147.23,196.341 89.5,131C 137.531,144.103 185.865,155.603 234.5,165.5 Z" style="opacity: 1;"></path></g><g><path fill="#5b93e9" d="M 608.5,148.5 C 594.72,150.507 580.72,151.507 566.5,151.5C 580.315,149.966 594.315,148.966 608.5,148.5 Z" style="opacity: 1;"></path></g><g><path fill="#598ee3" d="M 551.5,152.5 C 536.194,153.993 520.694,154.66 505,154.5C 494.661,154.5 484.494,154.167 474.5,153.5C 500.173,153.531 525.839,153.198 551.5,152.5 Z" style="opacity: 1;"></path></g><g><path fill="#699ae5" d="M 768.5,163.5 C 767.082,161.692 765.082,161.025 762.5,161.5C 765.633,160.257 768.967,159.757 772.5,160C 771.295,161.376 769.962,162.542 768.5,163.5 Z" style="opacity: 1;"></path></g><g><path fill="#488df4" d="M 234.5,165.5 C 254.37,167.999 274.037,170.999 293.5,174.5C 288.296,174.298 283.129,174.631 278,175.5C 276.674,175.245 275.674,174.578 275,173.5C 274.311,174.357 273.478,175.023 272.5,175.5C 270.551,173.923 268.551,172.423 266.5,171C 258.259,170.612 250.092,169.779 242,168.5C 238.487,170.923 235.987,169.923 234.5,165.5 Z" style="opacity: 1;"></path></g><g><path fill="#6a99e9" d="M 719.5,168.5 C 719.082,169.222 718.416,169.722 717.5,170C 712.207,170.977 706.874,171.477 701.5,171.5C 707.331,170.271 713.331,169.271 719.5,168.5 Z" style="opacity: 1;"></path></g><g><path fill="#5b92ea" d="M 668.5,175.5 C 667.306,176.777 665.64,177.444 663.5,177.5C 647.232,179.828 630.899,181.495 614.5,182.5C 632.391,180.392 650.391,178.058 668.5,175.5 Z" style="opacity: 1;"></path></g><g><path fill="#6297ed" d="M 347.5,180.5 C 355.365,180.571 363.031,181.238 370.5,182.5C 364.158,182.666 357.825,182.5 351.5,182C 349.942,181.79 348.609,181.29 347.5,180.5 Z" style="opacity: 1;"></path></g><g><path fill="#6a9deb" d="M 408.5,184.5 C 414.712,184.523 420.712,185.19 426.5,186.5C 420.261,186.724 414.261,186.057 408.5,184.5 Z" style="opacity: 1;"></path></g><g><path fill="#5e95ea" d="M 595.5,183.5 C 594.391,184.29 593.058,184.79 591.5,185C 581.186,185.95 570.853,186.45 560.5,186.5C 572,185.272 583.667,184.272 595.5,183.5 Z" style="opacity: 1;"></path></g><g><path fill="#5292f4" d="M 8.5,201.5 C 10.139,204.379 11.4723,207.545 12.5,211C 12.1667,212 11.8333,213 11.5,214C 13.1641,215.767 14.3308,215.267 15,212.5C 14.7891,219.138 14.6224,225.804 14.5,232.5C 11.7696,222.429 9.76961,212.095 8.5,201.5 Z" style="opacity: 1;"></path></g><g><path fill="#3c8afe" d="M 592.5,458.5 C 591.302,462.488 591.302,466.488 592.5,470.5C 594.471,472.275 595.804,474.442 596.5,477C 594.962,480.021 594.462,483.188 595,486.5C 595.739,484.779 596.573,483.113 597.5,481.5C 598.011,483.884 599.011,485.884 600.5,487.5C 613.617,534.626 626.451,581.96 639,629.5C 642.204,643.481 639.538,656.148 631,667.5C 587.5,705.667 544,743.833 500.5,782C 495.366,785.985 489.699,788.818 483.5,790.5C 476.5,790.5 469.5,790.5 462.5,790.5C 451.938,787.773 443.771,781.773 438,772.5C 437.125,771.127 436.625,769.627 436.5,768C 467.89,670.404 508.39,576.904 558,487.5C 568,472.167 578,456.833 588,441.5C 590.282,446.963 591.782,452.629 592.5,458.5 Z" style="opacity: 1;"></path></g><g><path fill="#4e8ff2" d="M 592.5,458.5 C 595.924,467.854 598.591,477.521 600.5,487.5C 599.011,485.884 598.011,483.884 597.5,481.5C 596.573,483.113 595.739,484.779 595,486.5C 594.462,483.188 594.962,480.021 596.5,477C 595.804,474.442 594.471,472.275 592.5,470.5C 591.302,466.488 591.302,462.488 592.5,458.5 Z" style="opacity: 1;"></path></g><g><path fill="#408bfa" d="M 434.5,673.5 C 427.567,693.296 420.234,712.963 412.5,732.5C 410.008,726.026 408.341,719.36 407.5,712.5C 408.212,711.261 409.212,710.761 410.5,711C 411.271,713.44 411.438,715.94 411,718.5C 411.317,716.699 411.984,716.366 413,717.5C 413.146,713.445 413.98,709.612 415.5,706C 414.936,699.944 414.603,693.944 414.5,688C 415.793,687.51 417.127,687.343 418.5,687.5C 417.833,689.833 417.167,692.167 416.5,694.5C 417.5,694.5 418.5,694.5 419.5,694.5C 419.104,691.956 419.771,689.789 421.5,688C 419.164,686.73 419.164,685.23 421.5,683.5C 424.092,688.624 425.092,687.958 424.5,681.5C 425.873,681.657 427.207,681.49 428.5,681C 429.227,678.876 429.894,676.709 430.5,674.5C 431.689,673.571 433.022,673.238 434.5,673.5 Z" style="opacity: 1;"></path></g><g><path fill="#6599ed" d="M 462.5,790.5 C 469.5,790.5 476.5,790.5 483.5,790.5C 476.5,793.167 469.5,793.167 462.5,790.5 Z" style="opacity: 1;"></path></g></svg>